<svg width="100" height="40" viewBox="0 0 100 40" fill="none" xmlns="http://www.w3.org/2000/svg">
<g clip-path="url(#clip0)">
<path d="M96.6 -0.600006H4.6C2.39086 -0.600006 0.599998 1.19085 0.599998 3.39999V35.4C0.599998 37.6092 2.39086 39.4 4.6 39.4H96.6C98.8092 39.4 100.6 37.6092 100.6 35.4V3.39999C100.6 1.19085 98.8092 -0.600006 96.6 -0.600006Z" fill="white"/>
<path d="M35.4168 25.9374C35.4168 27.0774 35.0028 27.9654 34.1748 28.6014C33.3468 29.2374 32.2308 29.5554 30.8268 29.5554C30.1068 29.5554 29.4408 29.5014 28.8288 29.3934C28.2168 29.2854 27.7068 29.1354 27.2988 28.9434V27.3954C27.7308 27.5874 28.2648 27.7614 28.9008 27.9174C29.5488 28.0734 30.2148 28.1514 30.8988 28.1514C31.8588 28.1514 32.5788 27.9654 33.0588 27.5934C33.5508 27.2214 33.7968 26.7174 33.7968 26.0814C33.7968 25.6614 33.7068 25.3074 33.5268 25.0194C33.3468 24.7314 33.0348 24.4674 32.5908 24.2274C32.1588 23.9754 31.5528 23.7114 30.7728 23.4354C29.6808 23.0394 28.8528 22.5534 28.2888 21.9774C27.7368 21.4014 27.4608 20.6154 27.4608 19.6194C27.4608 18.9354 27.6348 18.3534 27.9828 17.8734C28.3308 17.3814 28.8108 17.0034 29.4228 16.7394C30.0468 16.4754 30.7608 16.3434 31.5648 16.3434C32.2728 16.3434 32.9208 16.4094 33.5088 16.5414C34.0968 16.6734 34.6308 16.8474 35.1108 17.0634L34.6068 18.4494C34.1628 18.2574 33.6768 18.0954 33.1488 17.9634C32.6328 17.8314 32.0928 17.7654 31.5288 17.7654C30.7248 17.7654 30.1188 17.9394 29.7108 18.2874C29.3028 18.6234 29.0988 19.0734 29.0988 19.6374C29.0988 20.0694 29.1888 20.4294 29.3688 20.7174C29.5488 21.0054 29.8428 21.2634 30.2508 21.4914C30.6588 21.7194 31.2108 21.9654 31.9068 22.2294C32.6628 22.5054 33.2988 22.8054 33.8148 23.1294C34.3428 23.4414 34.7388 23.8194 35.0028 24.2634C35.2788 24.7074 35.4168 25.2654 35.4168 25.9374ZM42.3798 19.5474C43.5678 19.5474 44.5218 19.9614 45.2418 20.7894C45.9738 21.6174 46.3398 22.8654 46.3398 24.5334C46.3398 26.1774 45.9738 27.4254 45.2418 28.2774C44.5218 29.1294 43.5618 29.5554 42.3618 29.5554C41.6178 29.5554 40.9998 29.4174 40.5078 29.1414C40.0278 28.8534 39.6498 28.5234 39.3738 28.1514H39.2658C39.2898 28.3554 39.3138 28.6134 39.3378 28.9254C39.3618 29.2374 39.3738 29.5074 39.3738 29.7354V33.6954H37.7898V19.7274H39.0858L39.3018 21.0414H39.3738C39.6618 20.6214 40.0398 20.2674 40.5078 19.9794C40.9758 19.6914 41.5998 19.5474 42.3798 19.5474ZM42.0918 20.8794C41.1078 20.8794 40.4118 21.1554 40.0038 21.7074C39.6078 22.2594 39.3978 23.0994 39.3738 24.2274V24.5334C39.3738 25.7214 39.5658 26.6394 39.9498 27.2874C40.3458 27.9234 41.0718 28.2414 42.1278 28.2414C42.7158 28.2414 43.1958 28.0794 43.5678 27.7554C43.9518 27.4314 44.2338 26.9934 44.4138 26.4414C44.6058 25.8774 44.7018 25.2354 44.7018 24.5154C44.7018 23.4114 44.4858 22.5294 44.0538 21.8694C43.6338 21.2094 42.9798 20.8794 42.0918 20.8794ZM49.674 16.1094C49.914 16.1094 50.124 16.1934 50.304 16.3614C50.496 16.5174 50.592 16.7694 50.592 17.1174C50.592 17.4534 50.496 17.7054 50.304 17.8734C50.124 18.0414 49.914 18.1254 49.674 18.1254C49.41 18.1254 49.188 18.0414 49.008 17.8734C48.828 17.7054 48.738 17.4534 48.738 17.1174C48.738 16.7694 48.828 16.5174 49.008 16.3614C49.188 16.1934 49.41 16.1094 49.674 16.1094ZM50.448 19.7274V29.3754H48.864V19.7274H50.448ZM57.3746 29.5554C56.5226 29.5554 55.7606 29.3814 55.0886 29.0334C54.4286 28.6854 53.9066 28.1454 53.5226 27.4134C53.1506 26.6814 52.9646 25.7454 52.9646 24.6054C52.9646 23.4174 53.1626 22.4514 53.5586 21.7074C53.9546 20.9634 54.4886 20.4174 55.1606 20.0694C55.8446 19.7214 56.6186 19.5474 57.4826 19.5474C57.9746 19.5474 58.4486 19.6014 58.9046 19.7094C59.3606 19.8054 59.7326 19.9254 60.0206 20.0694L59.5346 21.3834C59.2466 21.2754 58.9106 21.1734 58.5266 21.0774C58.1426 20.9814 57.7826 20.9334 57.4466 20.9334C55.5506 20.9334 54.6026 22.1514 54.6026 24.5874C54.6026 25.7514 54.8306 26.6454 55.2866 27.2694C55.7546 27.8814 56.4446 28.1874 57.3566 28.1874C57.8846 28.1874 58.3466 28.1334 58.7426 28.0254C59.1506 27.9174 59.5226 27.7854 59.8586 27.6294V29.0334C59.5346 29.2014 59.1746 29.3274 58.7786 29.4114C58.3946 29.5074 57.9266 29.5554 57.3746 29.5554ZM60.641 19.7274H62.333L64.421 25.2174C64.601 25.6974 64.763 26.1594 64.907 26.6034C65.051 27.0354 65.159 27.4494 65.231 27.8454H65.303C65.375 27.5454 65.489 27.1554 65.645 26.6754C65.801 26.1834 65.963 25.6914 66.131 25.1994L68.093 19.7274H69.803L65.645 30.7074C65.309 31.6194 64.871 32.3454 64.331 32.8854C63.803 33.4254 63.071 33.6954 62.135 33.6954C61.847 33.6954 61.595 33.6774 61.379 33.6414C61.163 33.6174 60.977 33.5874 60.821 33.5514V32.2914C60.953 32.3154 61.109 32.3394 61.289 32.3634C61.481 32.3874 61.679 32.3994 61.883 32.3994C62.435 32.3994 62.879 32.2434 63.215 31.9314C63.563 31.6194 63.833 31.2054 64.025 30.6894L64.529 29.4114L60.641 19.7274ZM75.7748 20.9514H73.3448V29.3754H71.7608V20.9514H70.0688V20.2134L71.7608 19.6734V19.1154C71.7608 17.8674 72.0368 16.9734 72.5888 16.4334C73.1408 15.8814 73.9088 15.6054 74.8928 15.6054C75.2768 15.6054 75.6248 15.6414 75.9368 15.7134C76.2608 15.7734 76.5368 15.8454 76.7648 15.9294L76.3508 17.1714C76.1588 17.1114 75.9368 17.0514 75.6848 16.9914C75.4328 16.9314 75.1748 16.9014 74.9108 16.9014C74.3828 16.9014 73.9868 17.0814 73.7228 17.4414C73.4708 17.7894 73.3448 18.3414 73.3448 19.0974V19.7274H75.7748V20.9514ZM76.0044 19.7274H77.6964L79.7844 25.2174C79.9644 25.6974 80.1264 26.1594 80.2704 26.6034C80.4144 27.0354 80.5224 27.4494 80.5944 27.8454H80.6664C80.7384 27.5454 80.8524 27.1554 81.0084 26.6754C81.1644 26.1834 81.3264 25.6914 81.4944 25.1994L83.4564 19.7274H85.1664L81.0084 30.7074C80.6724 31.6194 80.2344 32.3454 79.6944 32.8854C79.1664 33.4254 78.4344 33.6954 77.4984 33.6954C77.2104 33.6954 76.9584 33.6774 76.7424 33.6414C76.5264 33.6174 76.3404 33.5874 76.1844 33.5514V32.2914C76.3164 32.3154 76.4724 32.3394 76.6524 32.3634C76.8444 32.3874 77.0424 32.3994 77.2464 32.3994C77.7984 32.3994 78.2424 32.2434 78.5784 31.9314C78.9264 31.6194 79.1964 31.2054 79.3884 30.6894L79.8924 29.4114L76.0044 19.7274Z" fill="#FF4700"/>
<path d="M27.2988 28.9434H27.0988V29.0704L27.2138 29.1244L27.2988 28.9434ZM27.2988 27.3954L27.38 27.2126L27.0988 27.0876V27.3954H27.2988ZM33.0588 27.5934L32.9382 27.4338L32.9364 27.4354L33.0588 27.5934ZM32.5908 24.2274L32.49 24.4002L32.4928 24.4018L32.4958 24.4034L32.5908 24.2274ZM30.7728 23.4354L30.7046 23.6234L30.7062 23.624L30.7728 23.4354ZM28.2888 21.9774L28.1444 22.1158L28.146 22.1174L28.2888 21.9774ZM27.9828 17.8734L28.1448 17.9908L28.1462 17.9889L27.9828 17.8734ZM29.4228 16.7394L29.345 16.5552L29.3436 16.5558L29.4228 16.7394ZM35.1108 17.0634L35.2988 17.1318L35.3622 16.9572L35.193 16.881L35.1108 17.0634ZM34.6068 18.4494L34.5274 18.633L34.7222 18.7172L34.7948 18.5178L34.6068 18.4494ZM33.1488 17.9634L33.0992 18.1572L33.1004 18.1574L33.1488 17.9634ZM29.7108 18.2874L29.838 18.4418L29.8394 18.4407L29.8406 18.4396L29.7108 18.2874ZM31.9068 22.2294L31.836 22.4164L31.8382 22.4174L31.9068 22.2294ZM33.8148 23.1294L33.7086 23.2988L33.7108 23.3002L33.7132 23.3016L33.8148 23.1294ZM35.0028 24.2634L34.831 24.3656L34.832 24.3674L34.833 24.369L35.0028 24.2634ZM35.2168 25.9374C35.2168 27.0218 34.8268 27.8486 34.053 28.4428L34.2966 28.76C35.179 28.0824 35.6168 27.133 35.6168 25.9374H35.2168ZM34.053 28.4428C33.2702 29.044 32.2018 29.3554 30.8268 29.3554V29.7554C32.2598 29.7554 33.4234 29.4308 34.2966 28.76L34.053 28.4428ZM30.8268 29.3554C30.1168 29.3554 29.4626 29.3022 28.8636 29.1964L28.7942 29.5904C29.4192 29.7008 30.097 29.7554 30.8268 29.7554V29.3554ZM28.8636 29.1964C28.263 29.0904 27.7712 28.9448 27.384 28.7624L27.2138 29.1244C27.6424 29.3262 28.1708 29.4804 28.7942 29.5904L28.8636 29.1964ZM27.4988 28.9434V27.3954H27.0988V28.9434H27.4988ZM27.2176 27.5782C27.6636 27.7764 28.2098 27.9538 28.8532 28.1116L28.9486 27.7232C28.32 27.569 27.798 27.3984 27.38 27.2126L27.2176 27.5782ZM28.8532 28.1116C29.517 28.2714 30.1996 28.3514 30.8988 28.3514V27.9514C30.2302 27.9514 29.58 27.8752 28.9476 27.723L28.8532 28.1116ZM30.8988 28.3514C31.8792 28.3514 32.6512 28.1624 33.1814 27.7516L32.9364 27.4354C32.5066 27.7684 31.8386 27.9514 30.8988 27.9514V28.3514ZM33.1794 27.753C33.7232 27.3418 33.9968 26.7778 33.9968 26.0814H33.5968C33.5968 26.657 33.3784 27.1008 32.9382 27.4338L33.1794 27.753ZM33.9968 26.0814C33.9968 25.6328 33.9006 25.24 33.6964 24.9134L33.3572 25.1254C33.5132 25.3748 33.5968 25.69 33.5968 26.0814H33.9968ZM33.6964 24.9134C33.4912 24.5852 33.1466 24.3006 32.686 24.0514L32.4958 24.4034C32.923 24.6344 33.2024 24.8776 33.3572 25.1254L33.6964 24.9134ZM32.6916 24.0546C32.244 23.7936 31.6248 23.5248 30.8396 23.2468L30.7062 23.624C31.481 23.8982 32.0736 24.1572 32.49 24.4002L32.6916 24.0546ZM30.841 23.2474C29.7658 22.8574 28.9676 22.3848 28.4318 21.8376L28.146 22.1174C28.7382 22.7222 29.596 23.2214 30.7046 23.6234L30.841 23.2474ZM28.4332 21.839C27.9252 21.309 27.6608 20.5774 27.6608 19.6194H27.2608C27.2608 20.6536 27.5484 21.4938 28.1444 22.1158L28.4332 21.839ZM27.6608 19.6194C27.6608 18.9709 27.8252 18.4316 28.1448 17.9908L27.821 17.756C27.4446 18.2752 27.2608 18.9 27.2608 19.6194H27.6608ZM28.1462 17.9889C28.4708 17.53 28.9202 17.1741 29.502 16.9231L29.3436 16.5558C28.7016 16.8327 28.191 17.2328 27.8196 17.7579L28.1462 17.9889ZM29.5008 16.9236C30.096 16.6718 30.7828 16.5434 31.5648 16.5434V16.1434C30.739 16.1434 29.9978 16.279 29.345 16.5552L29.5008 16.9236ZM31.5648 16.5434C32.2606 16.5434 32.8936 16.6083 33.465 16.7366L33.5526 16.3463C32.948 16.2105 32.2852 16.1434 31.5648 16.1434V16.5434ZM33.465 16.7366C34.0418 16.866 34.5626 17.0361 35.0288 17.2458L35.193 16.881C34.699 16.6588 34.152 16.4808 33.5526 16.3463L33.465 16.7366ZM34.923 16.9951L34.419 18.3811L34.7948 18.5178L35.2988 17.1318L34.923 16.9951ZM34.6862 18.2658C34.2312 18.069 33.7346 17.9037 33.1974 17.7694L33.1004 18.1574C33.619 18.2871 34.0946 18.4458 34.5274 18.633L34.6862 18.2658ZM33.1984 17.7697C32.6654 17.6333 32.1086 17.5654 31.5288 17.5654V17.9654C32.0772 17.9654 32.6004 18.0296 33.0992 18.1572L33.1984 17.7697ZM31.5288 17.5654C30.7002 17.5654 30.0396 17.7442 29.581 18.1353L29.8406 18.4396C30.1982 18.1347 30.7494 17.9654 31.5288 17.9654V17.5654ZM29.5838 18.133C29.1262 18.5098 28.8988 19.0182 28.8988 19.6374H29.2988C29.2988 19.1286 29.4796 18.737 29.838 18.4418L29.5838 18.133ZM28.8988 19.6374C28.8988 20.0968 28.9946 20.496 29.1992 20.8234L29.5384 20.6114C29.383 20.3628 29.2988 20.042 29.2988 19.6374H28.8988ZM29.1992 20.8234C29.4026 21.1488 29.7264 21.4274 30.1532 21.666L30.3484 21.3168C29.9592 21.0994 29.6952 20.8622 29.5384 20.6114L29.1992 20.8234ZM30.1532 21.666C30.5734 21.9008 31.1354 22.1508 31.836 22.4164L31.9778 22.0424C31.2862 21.7802 30.7444 21.5382 30.3484 21.3168L30.1532 21.666ZM31.8382 22.4174C32.585 22.69 33.2074 22.9842 33.7086 23.2988L33.9212 22.96C33.3902 22.6266 32.7408 22.321 31.9754 22.0416L31.8382 22.4174ZM33.7132 23.3016C34.2176 23.5998 34.587 23.9554 34.831 24.3656L35.1748 24.1612C34.8906 23.6834 34.468 23.2832 33.9166 22.9572L33.7132 23.3016ZM34.833 24.369C35.0844 24.7734 35.2168 25.2922 35.2168 25.9374H35.6168C35.6168 25.2386 35.4734 24.6414 35.1728 24.1578L34.833 24.369ZM45.2418 20.7894L45.0908 20.9206L45.092 20.922L45.2418 20.7894ZM45.2418 28.2774L45.09 28.1472L45.089 28.1484L45.2418 28.2774ZM40.5078 29.1414L40.4048 29.313L40.4074 29.3144L40.41 29.3158L40.5078 29.1414ZM39.3738 28.1514L39.5344 28.0322L39.4744 27.9514H39.3738V28.1514ZM39.2658 28.1514V27.9514H39.0408L39.0672 28.1748L39.2658 28.1514ZM39.3738 33.6954V33.8954H39.5738V33.6954H39.3738ZM37.7898 33.6954H37.5898V33.8954H37.7898V33.6954ZM37.7898 19.7274V19.5274H37.5898V19.7274H37.7898ZM39.0858 19.7274L39.2832 19.695L39.2556 19.5274H39.0858V19.7274ZM39.3018 21.0414L39.1044 21.0738L39.132 21.2414H39.3018V21.0414ZM39.3738 21.0414V21.2414H39.4792L39.5388 21.1546L39.3738 21.0414ZM40.0038 21.7074L39.843 21.5886L39.842 21.5898L39.8412 21.5908L40.0038 21.7074ZM39.3738 24.2274L39.1738 24.2232V24.2254V24.2274H39.3738ZM39.9498 27.2874L39.7778 27.3894L39.7788 27.3912L39.78 27.3932L39.9498 27.2874ZM43.5678 27.7554L43.4388 27.6026L43.4376 27.6036L43.4364 27.6046L43.5678 27.7554ZM44.4138 26.4414L44.2244 26.377L44.2236 26.3794L44.4138 26.4414ZM44.0538 21.8694L43.885 21.9768L43.8864 21.979L44.0538 21.8694ZM42.3798 19.7474C43.5152 19.7474 44.4122 20.1402 45.0908 20.9206L45.3926 20.6582C44.6312 19.7826 43.6202 19.3474 42.3798 19.3474V19.7474ZM45.092 20.922C45.7786 21.6986 46.1398 22.8902 46.1398 24.5334H46.5398C46.5398 22.8408 46.169 21.5362 45.3916 20.657L45.092 20.922ZM46.1398 24.5334C46.1398 26.1512 45.7792 27.345 45.09 28.1472L45.3934 28.4078C46.1684 27.506 46.5398 26.2036 46.5398 24.5334H46.1398ZM45.089 28.1484C44.4102 28.9516 43.508 29.3554 42.3618 29.3554V29.7554C43.6156 29.7554 44.6334 29.3072 45.3946 28.4066L45.089 28.1484ZM42.3618 29.3554C41.6414 29.3554 41.0596 29.2218 40.6056 28.967L40.41 29.3158C40.9398 29.6132 41.594 29.7554 42.3618 29.7554V29.3554ZM40.6106 28.97C40.1486 28.6926 39.7918 28.3794 39.5344 28.0322L39.2132 28.2706C39.5076 28.6676 39.907 29.0142 40.4048 29.313L40.6106 28.97ZM39.3738 27.9514H39.2658V28.3514H39.3738V27.9514ZM39.0672 28.1748C39.0908 28.3752 39.1144 28.6302 39.1384 28.9408L39.5372 28.9102C39.513 28.5966 39.4888 28.3358 39.4644 28.128L39.0672 28.1748ZM39.1384 28.9408C39.162 29.2494 39.1738 29.514 39.1738 29.7354H39.5738C39.5738 29.5008 39.5614 29.2254 39.5372 28.9102L39.1384 28.9408ZM39.1738 29.7354V33.6954H39.5738V29.7354H39.1738ZM39.3738 33.4954H37.7898V33.8954H39.3738V33.4954ZM37.9898 33.6954V19.7274H37.5898V33.6954H37.9898ZM37.7898 19.9274H39.0858V19.5274H37.7898V19.9274ZM38.8884 19.7598L39.1044 21.0738L39.4992 21.009L39.2832 19.695L38.8884 19.7598ZM39.3018 21.2414H39.3738V20.8414H39.3018V21.2414ZM39.5388 21.1546C39.8096 20.7594 40.1666 20.4242 40.6126 20.1498L40.403 19.8092C39.913 20.1106 39.5138 20.4834 39.2088 20.9284L39.5388 21.1546ZM40.6126 20.1498C41.0384 19.8876 41.622 19.7474 42.3798 19.7474V19.3474C41.5776 19.3474 40.913 19.4952 40.403 19.8092L40.6126 20.1498ZM42.0918 20.6794C41.0734 20.6794 40.3032 20.966 39.843 21.5886L40.1646 21.8264C40.5204 21.345 41.1422 21.0794 42.0918 21.0794V20.6794ZM39.8412 21.5908C39.4108 22.191 39.1982 23.0788 39.1738 24.2232L39.5738 24.2316C39.5974 23.12 39.8048 22.328 40.1662 21.824L39.8412 21.5908ZM39.1738 24.2274V24.5334H39.5738V24.2274H39.1738ZM39.1738 24.5334C39.1738 25.7384 39.3678 26.6976 39.7778 27.3894L40.1218 27.1854C39.7638 26.5812 39.5738 25.7044 39.5738 24.5334H39.1738ZM39.78 27.3932C40.2264 28.11 41.0338 28.4414 42.1278 28.4414V28.0414C41.1098 28.0414 40.4652 27.7368 40.1196 27.1818L39.78 27.3932ZM42.1278 28.4414C42.7544 28.4414 43.284 28.2678 43.6992 27.9062L43.4364 27.6046C43.1076 27.891 42.6772 28.0414 42.1278 28.0414V28.4414ZM43.6968 27.9082C44.1134 27.5568 44.4142 27.0852 44.604 26.5034L44.2236 26.3794C44.0534 26.9016 43.7902 27.3062 43.4388 27.6026L43.6968 27.9082ZM44.603 26.5058C44.8034 25.9174 44.9018 25.253 44.9018 24.5154H44.5018C44.5018 25.218 44.408 25.8376 44.2244 26.377L44.603 26.5058ZM44.9018 24.5154C44.9018 23.3874 44.6814 22.463 44.2212 21.76L43.8864 21.979C44.2902 22.5958 44.5018 23.4354 44.5018 24.5154H44.9018ZM44.2224 21.762C43.7602 21.0358 43.0372 20.6794 42.0918 20.6794V21.0794C42.9222 21.0794 43.5072 21.3832 43.885 21.9768L44.2224 21.762ZM50.304 16.3614L50.1676 16.5076L50.1726 16.5123L50.1778 16.5166L50.304 16.3614ZM50.304 17.8734L50.1722 17.7229L50.1698 17.725L50.1676 17.7272L50.304 17.8734ZM49.008 16.3614L49.139 16.5126L49.1418 16.5101L49.1444 16.5076L49.008 16.3614ZM50.448 19.7274H50.648V19.5274H50.448V19.7274ZM50.448 29.3754V29.5754H50.648V29.3754H50.448ZM48.864 29.3754H48.664V29.5754H48.864V29.3754ZM48.864 19.7274V19.5274H48.664V19.7274H48.864ZM49.674 16.3094C49.8618 16.3094 50.0234 16.3732 50.1676 16.5076L50.4404 16.2152C50.2244 16.0136 49.966 15.9094 49.674 15.9094V16.3094ZM50.1778 16.5166C50.3062 16.621 50.392 16.804 50.392 17.1174H50.792C50.792 16.7349 50.6856 16.4138 50.4302 16.2062L50.1778 16.5166ZM50.392 17.1174C50.392 17.4151 50.3082 17.604 50.1722 17.7229L50.4356 18.0239C50.6838 17.8068 50.792 17.4917 50.792 17.1174H50.392ZM50.1676 17.7272C50.0234 17.8616 49.8618 17.9254 49.674 17.9254V18.3254C49.966 18.3254 50.2244 18.2212 50.4404 18.0196L50.1676 17.7272ZM49.674 17.9254C49.4566 17.9254 49.2846 17.858 49.1444 17.7272L48.8716 18.0196C49.0914 18.2248 49.3634 18.3254 49.674 18.3254V17.9254ZM49.1444 17.7272C49.018 17.6093 48.938 17.4189 48.938 17.1174H48.538C48.538 17.4879 48.6378 17.8016 48.8716 18.0196L49.1444 17.7272ZM48.938 17.1174C48.938 16.8001 49.02 16.6157 49.139 16.5126L48.877 16.2103C48.636 16.4191 48.538 16.7387 48.538 17.1174H48.938ZM49.1444 16.5076C49.2846 16.3768 49.4566 16.3094 49.674 16.3094V15.9094C49.3634 15.9094 49.0914 16.01 48.8716 16.2152L49.1444 16.5076ZM50.248 19.7274V29.3754H50.648V19.7274H50.248ZM50.448 29.1754H48.864V29.5754H50.448V29.1754ZM49.064 29.3754V19.7274H48.664V29.3754H49.064ZM48.864 19.9274H50.448V19.5274H48.864V19.9274ZM55.0886 29.0334L54.9954 29.2104L54.9966 29.211L55.0886 29.0334ZM53.5226 27.4134L53.3442 27.504L53.3454 27.5064L53.5226 27.4134ZM55.1606 20.0694L55.07 19.8912L55.0686 19.8918L55.1606 20.0694ZM58.9046 19.7094L58.8586 19.904L58.861 19.9046L58.8634 19.9052L58.9046 19.7094ZM60.0206 20.0694L60.2082 20.1388L60.2704 19.9708L60.11 19.8906L60.0206 20.0694ZM59.5346 21.3834L59.4644 21.5708L59.6524 21.6412L59.7222 21.4528L59.5346 21.3834ZM55.2866 27.2694L55.1252 27.3874L55.1264 27.3892L55.1278 27.391L55.2866 27.2694ZM58.7426 28.0254L58.6914 27.832L58.69 27.8324L58.7426 28.0254ZM59.8586 27.6294H60.0586V27.316L59.7744 27.448L59.8586 27.6294ZM59.8586 29.0334L59.9506 29.211L60.0586 29.155V29.0334H59.8586ZM58.7786 29.4114L58.7372 29.2158L58.7336 29.2166L58.7302 29.2174L58.7786 29.4114ZM57.3746 29.3554C56.5506 29.3554 55.8208 29.1874 55.1806 28.8558L54.9966 29.211C55.7004 29.5756 56.4946 29.7554 57.3746 29.7554V29.3554ZM55.1818 28.8566C54.5616 28.5294 54.067 28.0208 53.6998 27.3206L53.3454 27.5064C53.7462 28.2702 54.2958 28.8414 54.9954 29.2104L55.1818 28.8566ZM53.701 27.3228C53.3476 26.6276 53.1646 25.7254 53.1646 24.6054H52.7646C52.7646 25.7654 52.9534 26.7352 53.3442 27.504L53.701 27.3228ZM53.1646 24.6054C53.1646 23.4376 53.3596 22.507 53.7352 21.8014L53.382 21.6134C52.9656 22.3958 52.7646 23.3974 52.7646 24.6054H53.1646ZM53.7352 21.8014C54.1144 21.089 54.6206 20.5742 55.2526 20.247L55.0686 19.8918C54.3566 20.2606 53.7948 20.838 53.382 21.6134L53.7352 21.8014ZM55.2514 20.2476C55.9038 19.9158 56.6462 19.7474 57.4826 19.7474V19.3474C56.591 19.3474 55.7854 19.5272 55.07 19.8912L55.2514 20.2476ZM57.4826 19.7474C57.9598 19.7474 58.4184 19.7998 58.8586 19.904L58.9508 19.5148C58.4788 19.403 57.9894 19.3474 57.4826 19.3474V19.7474ZM58.8634 19.9052C59.3094 19.999 59.6636 20.1146 59.9312 20.2484L60.11 19.8906C59.8016 19.7364 59.4118 19.6118 58.9458 19.5138L58.8634 19.9052ZM59.833 20L59.347 21.314L59.7222 21.4528L60.2082 20.1388L59.833 20ZM59.6048 21.1962C59.308 21.0848 58.9646 20.9808 58.5752 20.8834L58.4782 21.2714C58.8568 21.3662 59.1852 21.466 59.4644 21.5708L59.6048 21.1962ZM58.5752 20.8834C58.178 20.7842 57.8016 20.7334 57.4466 20.7334V21.1334C57.7636 21.1334 58.1072 21.1788 58.4782 21.2714L58.5752 20.8834ZM57.4466 20.7334C56.4526 20.7334 55.6764 21.0552 55.1558 21.724C54.6426 22.3834 54.4026 23.349 54.4026 24.5874H54.8026C54.8026 23.3898 55.0366 22.5284 55.4714 21.9698C55.8988 21.4206 56.5446 21.1334 57.4466 21.1334V20.7334ZM54.4026 24.5874C54.4026 25.7736 54.6344 26.7158 55.1252 27.3874L55.448 27.1514C55.027 26.575 54.8026 25.7294 54.8026 24.5874H54.4026ZM55.1278 27.391C55.6408 28.0618 56.3952 28.3874 57.3566 28.3874V27.9874C56.494 27.9874 55.8684 27.701 55.4454 27.148L55.1278 27.391ZM57.3566 28.3874C57.8976 28.3874 58.378 28.3322 58.7952 28.2184L58.69 27.8324C58.3152 27.9346 57.8716 27.9874 57.3566 27.9874V28.3874ZM58.7938 28.2188C59.2116 28.1082 59.5948 27.9724 59.9428 27.8108L59.7744 27.448C59.4504 27.5984 59.0896 27.7266 58.6914 27.832L58.7938 28.2188ZM59.6586 27.6294V29.0334H60.0586V27.6294H59.6586ZM59.7666 28.8558C59.4602 29.0148 59.1174 29.1352 58.7372 29.2158L58.8202 29.607C59.2318 29.5198 59.609 29.3882 59.9506 29.211L59.7666 28.8558ZM58.7302 29.2174C58.3668 29.3082 57.9162 29.3554 57.3746 29.3554V29.7554C57.937 29.7554 58.4224 29.7066 58.8272 29.6054L58.7302 29.2174ZM60.641 19.7274V19.5274H60.3452L60.4554 19.802L60.641 19.7274ZM62.333 19.7274L62.52 19.6564L62.471 19.5274H62.333V19.7274ZM64.907 26.6034L64.7168 26.6652L64.7174 26.6666L64.907 26.6034ZM65.231 27.8454L65.0342 27.8812L65.0642 28.0454H65.231V27.8454ZM65.303 27.8454V28.0454H65.4608L65.4976 27.8922L65.303 27.8454ZM65.645 26.6754L65.8352 26.7372L65.8356 26.7358L65.645 26.6754ZM66.131 25.1994L65.9428 25.132L65.9422 25.1334L65.9418 25.1348L66.131 25.1994ZM68.093 19.7274V19.5274H67.9522L67.9048 19.66L68.093 19.7274ZM69.803 19.7274L69.99 19.7982L70.0926 19.5274H69.803V19.7274ZM65.645 30.7074L65.458 30.6366L65.4574 30.6382L65.645 30.7074ZM64.331 32.8854L64.1896 32.744L64.188 32.7456L64.331 32.8854ZM61.379 33.6414L61.412 33.4442L61.4066 33.4432L61.4012 33.4426L61.379 33.6414ZM60.821 33.5514H60.621V33.7106L60.776 33.7464L60.821 33.5514ZM60.821 32.2914L60.8568 32.0946L60.621 32.0518V32.2914H60.821ZM61.289 32.3634L61.2626 32.5616L61.2642 32.5618L61.289 32.3634ZM63.215 31.9314L63.0816 31.7826L63.0802 31.7836L63.079 31.7848L63.215 31.9314ZM64.025 30.6894L63.839 30.616L63.8382 30.6178L63.8376 30.6196L64.025 30.6894ZM64.529 29.4114L64.7152 29.4848L64.7442 29.4108L64.7146 29.337L64.529 29.4114ZM60.641 19.9274H62.333V19.5274H60.641V19.9274ZM62.1462 19.7986L64.2342 25.2886L64.6084 25.1472L62.52 19.6564L62.1462 19.7986ZM64.2338 25.2876C64.4128 25.7652 64.5738 26.2242 64.7168 26.6652L65.0972 26.5418C64.9522 26.0946 64.7892 25.6298 64.6084 25.1472L64.2338 25.2876ZM64.7174 26.6666C64.8586 27.0908 64.9642 27.4956 65.0342 27.8812L65.4278 27.8096C65.354 27.4032 65.2434 26.98 65.0968 26.5402L64.7174 26.6666ZM65.231 28.0454H65.303V27.6454H65.231V28.0454ZM65.4976 27.8922C65.5678 27.5994 65.68 27.215 65.8352 26.7372L65.4548 26.6136C65.298 27.096 65.1824 27.4914 65.1086 27.7988L65.4976 27.8922ZM65.8356 26.7358C65.9912 26.2452 66.1528 25.7546 66.3204 25.264L65.9418 25.1348C65.7734 25.6282 65.6108 26.1216 65.4544 26.615L65.8356 26.7358ZM66.3194 25.267L68.2814 19.795L67.9048 19.66L65.9428 25.132L66.3194 25.267ZM68.093 19.9274H69.803V19.5274H68.093V19.9274ZM69.616 19.6566L65.458 30.6366L65.832 30.7782L69.99 19.7982L69.616 19.6566ZM65.4574 30.6382C65.1288 31.5302 64.7044 32.2292 64.1896 32.744L64.4724 33.0268C65.0378 32.4616 65.4894 31.7086 65.8328 30.7766L65.4574 30.6382ZM64.188 32.7456C63.7062 33.2384 63.031 33.4954 62.135 33.4954V33.8954C63.1112 33.8954 63.8998 33.6126 64.474 33.0252L64.188 32.7456ZM62.135 33.4954C61.8548 33.4954 61.6142 33.4778 61.412 33.4442L61.3462 33.8388C61.5758 33.877 61.8392 33.8954 62.135 33.8954V33.4954ZM61.4012 33.4426C61.1904 33.4192 61.0124 33.3904 60.866 33.3566L60.776 33.7464C60.9418 33.7846 61.1358 33.8156 61.357 33.8402L61.4012 33.4426ZM61.021 33.5514V32.2914H60.621V33.5514H61.021ZM60.7852 32.4882C60.9212 32.513 61.0804 32.5374 61.2626 32.5616L61.3154 32.1652C61.1376 32.1414 60.9848 32.118 60.8568 32.0946L60.7852 32.4882ZM61.2642 32.5618C61.4648 32.587 61.6712 32.5994 61.883 32.5994V32.1994C61.6868 32.1994 61.4972 32.188 61.3138 32.165L61.2642 32.5618ZM61.883 32.5994C62.4746 32.5994 62.9708 32.431 63.3512 32.078L63.079 31.7848C62.7872 32.0558 62.3954 32.1994 61.883 32.1994V32.5994ZM63.3486 32.0804C63.7246 31.7432 64.0112 31.3002 64.2124 30.7592L63.8376 30.6196C63.6548 31.1108 63.4014 31.4956 63.0816 31.7826L63.3486 32.0804ZM64.2112 30.7628L64.7152 29.4848L64.343 29.338L63.839 30.616L64.2112 30.7628ZM64.7146 29.337L60.8266 19.653L60.4554 19.802L64.3434 29.486L64.7146 29.337ZM75.7748 20.9514V21.1514H75.9748V20.9514H75.7748ZM73.3448 20.9514V20.7514H73.1448V20.9514H73.3448ZM73.3448 29.3754V29.5754H73.5448V29.3754H73.3448ZM71.7608 29.3754H71.5608V29.5754H71.7608V29.3754ZM71.7608 20.9514H71.9608V20.7514H71.7608V20.9514ZM70.0688 20.9514H69.8688V21.1514H70.0688V20.9514ZM70.0688 20.2134L70.008 20.023L69.8688 20.0674V20.2134H70.0688ZM71.7608 19.6734L71.8216 19.864L71.9608 19.8196V19.6734H71.7608ZM72.5888 16.4334L72.7286 16.5764L72.7302 16.5748L72.5888 16.4334ZM75.9368 15.7134L75.8918 15.9083L75.8962 15.9093L75.9004 15.9101L75.9368 15.7134ZM76.7648 15.9294L76.9546 15.9927L77.0158 15.8088L76.834 15.7418L76.7648 15.9294ZM76.3508 17.1714L76.2912 17.3623L76.4786 17.4209L76.5406 17.2347L76.3508 17.1714ZM73.7228 17.4414L73.5616 17.3231L73.5608 17.3241L73.7228 17.4414ZM73.3448 19.7274H73.1448V19.9274H73.3448V19.7274ZM75.7748 19.7274H75.9748V19.5274H75.7748V19.7274ZM75.7748 20.7514H73.3448V21.1514H75.7748V20.7514ZM73.1448 20.9514V29.3754H73.5448V20.9514H73.1448ZM73.3448 29.1754H71.7608V29.5754H73.3448V29.1754ZM71.9608 29.3754V20.9514H71.5608V29.3754H71.9608ZM71.7608 20.7514H70.0688V21.1514H71.7608V20.7514ZM70.2688 20.9514V20.2134H69.8688V20.9514H70.2688ZM70.1296 20.404L71.8216 19.864L71.7 19.483L70.008 20.023L70.1296 20.404ZM71.9608 19.6734V19.1154H71.5608V19.6734H71.9608ZM71.9608 19.1154C71.9608 17.8894 72.2332 17.0612 72.7286 16.5764L72.449 16.2905C71.8406 16.8857 71.5608 17.8455 71.5608 19.1154H71.9608ZM72.7302 16.5748C73.2356 16.0695 73.9474 15.8054 74.8928 15.8054V15.4054C73.8704 15.4054 73.046 15.6933 72.4474 16.292L72.7302 16.5748ZM74.8928 15.8054C75.2646 15.8054 75.5972 15.8403 75.8918 15.9083L75.9818 15.5185C75.6524 15.4425 75.289 15.4054 74.8928 15.4054V15.8054ZM75.9004 15.9101C76.217 15.9687 76.4814 16.0381 76.6956 16.1171L76.834 15.7418C76.5924 15.6527 76.3048 15.5782 75.9732 15.5168L75.9004 15.9101ZM76.575 15.8662L76.161 17.1082L76.5406 17.2347L76.9546 15.9927L76.575 15.8662ZM76.4104 16.9805C76.213 16.9188 75.9864 16.8576 75.7312 16.7969L75.6386 17.186C75.8872 17.2452 76.1046 17.304 76.2912 17.3623L76.4104 16.9805ZM75.7312 16.7969C75.4636 16.7332 75.1902 16.7014 74.9108 16.7014V17.1014C75.1596 17.1014 75.402 17.1297 75.6386 17.186L75.7312 16.7969ZM74.9108 16.7014C74.3324 16.7014 73.8704 16.902 73.5616 17.3231L73.8842 17.5597C74.1032 17.2609 74.4334 17.1014 74.9108 17.1014V16.7014ZM73.5608 17.3241C73.2716 17.7236 73.1448 18.3276 73.1448 19.0974H73.5448C73.5448 18.3552 73.6702 17.8552 73.8848 17.5587L73.5608 17.3241ZM73.1448 19.0974V19.7274H73.5448V19.0974H73.1448ZM73.3448 19.9274H75.7748V19.5274H73.3448V19.9274ZM75.5748 19.7274V20.9514H75.9748V19.7274H75.5748ZM76.0044 19.7274V19.5274H75.7086L75.8188 19.802L76.0044 19.7274ZM77.6964 19.7274L77.8832 19.6564L77.8342 19.5274H77.6964V19.7274ZM80.2704 26.6034L80.08 26.6652L80.0806 26.6666L80.2704 26.6034ZM80.5944 27.8454L80.3976 27.8812L80.4274 28.0454H80.5944V27.8454ZM80.6664 27.8454V28.0454H80.824L80.8608 27.8922L80.6664 27.8454ZM81.0084 26.6754L81.1986 26.7372L81.199 26.7358L81.0084 26.6754ZM81.4944 25.1994L81.306 25.132L81.3056 25.1334L81.305 25.1348L81.4944 25.1994ZM83.4564 19.7274V19.5274H83.3156L83.268 19.66L83.4564 19.7274ZM85.1664 19.7274L85.3534 19.7982L85.456 19.5274H85.1664V19.7274ZM81.0084 30.7074L80.8212 30.6366L80.8206 30.6382L81.0084 30.7074ZM79.6944 32.8854L79.5528 32.744L79.5514 32.7456L79.6944 32.8854ZM76.7424 33.6414L76.7752 33.4442L76.7698 33.4432L76.7644 33.4426L76.7424 33.6414ZM76.1844 33.5514H75.9844V33.7106L76.1394 33.7464L76.1844 33.5514ZM76.1844 32.2914L76.2202 32.0946L75.9844 32.0518V32.2914H76.1844ZM76.6524 32.3634L76.6258 32.5616L76.6276 32.5618L76.6524 32.3634ZM78.5784 31.9314L78.4448 31.7826L78.4436 31.7836L78.4422 31.7848L78.5784 31.9314ZM79.3884 30.6894L79.2022 30.616L79.2016 30.6178L79.2008 30.6196L79.3884 30.6894ZM79.8924 29.4114L80.0784 29.4848L80.1076 29.4108L80.078 29.337L79.8924 29.4114ZM76.0044 19.9274H77.6964V19.5274H76.0044V19.9274ZM77.5094 19.7986L79.5974 25.2886L79.9716 25.1472L77.8832 19.6564L77.5094 19.7986ZM79.597 25.2876C79.7762 25.7652 79.937 26.2242 80.08 26.6652L80.4606 26.5418C80.3156 26.0946 80.1526 25.6298 79.9716 25.1472L79.597 25.2876ZM80.0806 26.6666C80.222 27.0908 80.3274 27.4956 80.3976 27.8812L80.7912 27.8096C80.7172 27.4032 80.6066 26.98 80.46 26.5402L80.0806 26.6666ZM80.5944 28.0454H80.6664V27.6454H80.5944V28.0454ZM80.8608 27.8922C80.931 27.5994 81.0432 27.215 81.1986 26.7372L80.8182 26.6136C80.6614 27.096 80.5456 27.4914 80.4718 27.7988L80.8608 27.8922ZM81.199 26.7358C81.3546 26.2452 81.516 25.7546 81.6836 25.264L81.305 25.1348C81.1366 25.6282 80.9742 26.1216 80.8176 26.615L81.199 26.7358ZM81.6826 25.267L83.6446 19.795L83.268 19.66L81.306 25.132L81.6826 25.267ZM83.4564 19.9274H85.1664V19.5274H83.4564V19.9274ZM84.9792 19.6566L80.8212 30.6366L81.1954 30.7782L85.3534 19.7982L84.9792 19.6566ZM80.8206 30.6382C80.492 31.5302 80.0674 32.2292 79.5528 32.744L79.8358 33.0268C80.401 32.4616 80.8526 31.7086 81.196 30.7766L80.8206 30.6382ZM79.5514 32.7456C79.0696 33.2384 78.3942 33.4954 77.4984 33.4954V33.8954C78.4744 33.8954 79.263 33.6126 79.8374 33.0252L79.5514 32.7456ZM77.4984 33.4954C77.2182 33.4954 76.9776 33.4778 76.7752 33.4442L76.7094 33.8388C76.939 33.877 77.2026 33.8954 77.4984 33.8954V33.4954ZM76.7644 33.4426C76.5536 33.4192 76.3756 33.3904 76.2294 33.3566L76.1394 33.7464C76.305 33.7846 76.499 33.8156 76.7202 33.8402L76.7644 33.4426ZM76.3844 33.5514V32.2914H75.9844V33.5514H76.3844ZM76.1486 32.4882C76.2846 32.513 76.4438 32.5374 76.6258 32.5616L76.6788 32.1652C76.5008 32.1414 76.3482 32.118 76.2202 32.0946L76.1486 32.4882ZM76.6276 32.5618C76.8282 32.587 77.0344 32.5994 77.2464 32.5994V32.1994C77.0502 32.1994 76.8604 32.188 76.6772 32.165L76.6276 32.5618ZM77.2464 32.5994C77.838 32.5994 78.3342 32.431 78.7144 32.078L78.4422 31.7848C78.1506 32.0558 77.7588 32.1994 77.2464 32.1994V32.5994ZM78.7118 32.0804C79.088 31.7432 79.3744 31.3002 79.5758 30.7592L79.2008 30.6196C79.0182 31.1108 78.7648 31.4956 78.4448 31.7826L78.7118 32.0804ZM79.5744 30.7628L80.0784 29.4848L79.7062 29.338L79.2022 30.616L79.5744 30.7628ZM80.078 29.337L76.19 19.653L75.8188 19.802L79.7068 29.486L80.078 29.337Z" fill="#FF4700"/>
<path d="M43.5664 35.4916C43.5256 35.866 43.3914 36.1524 43.1634 36.351C42.9372 36.5496 42.6354 36.6488 42.2578 36.6488C41.994 36.6488 41.7604 36.583 41.557 36.451C41.3552 36.3192 41.199 36.1328 41.0882 35.892C40.9776 35.6494 40.9214 35.3728 40.9198 35.062V34.6004C40.9198 34.2848 40.9752 34.0048 41.0858 33.7606C41.1966 33.5166 41.3552 33.3286 41.562 33.1966C41.7702 33.0632 42.0096 32.9964 42.2796 32.9964C42.6606 32.9964 42.9608 33.0998 43.1806 33.3066C43.402 33.5116 43.5306 33.7956 43.5664 34.1586H43.2636C43.1888 33.5548 42.8608 33.2528 42.2796 33.2528C41.9574 33.2528 41.7002 33.3732 41.5082 33.6142C41.3178 33.855 41.2226 34.1878 41.2226 34.6126V35.0472C41.2226 35.4574 41.3154 35.7846 41.5008 36.0288C41.688 36.2728 41.9404 36.395 42.2578 36.395C42.5718 36.395 42.8086 36.32 42.9682 36.1704C43.1276 36.019 43.2262 35.7928 43.2636 35.4916H43.5664ZM45.8954 36.6C45.8662 36.517 45.8474 36.3942 45.8392 36.2314C45.7368 36.3648 45.6056 36.4682 45.4462 36.5414C45.2884 36.613 45.1206 36.6488 44.9432 36.6488C44.6894 36.6488 44.4834 36.578 44.3256 36.4364C44.1694 36.2948 44.0912 36.1158 44.0912 35.8994C44.0912 35.6422 44.1978 35.4388 44.411 35.289C44.6258 35.1392 44.9246 35.0644 45.307 35.0644H45.8368V34.764C45.8368 34.5752 45.7782 34.4272 45.661 34.3198C45.5454 34.2106 45.3762 34.1562 45.1532 34.1562C44.9498 34.1562 44.7814 34.2082 44.6478 34.3124C44.5144 34.4166 44.4476 34.5418 44.4476 34.6884L44.1546 34.686C44.1546 34.476 44.2524 34.2944 44.4476 34.1416C44.643 33.9868 44.883 33.9096 45.1678 33.9096C45.4624 33.9096 45.6944 33.9836 45.8636 34.1318C46.0346 34.2782 46.1224 34.4834 46.1274 34.747V35.997C46.1274 36.2526 46.1542 36.4438 46.208 36.5708V36.6H45.8954ZM44.9774 36.39C45.1728 36.39 45.347 36.3428 45.5 36.2484C45.6546 36.154 45.7668 36.0278 45.8368 35.87V35.289H45.3144C45.023 35.2922 44.7952 35.346 44.6308 35.45C44.4664 35.5526 44.3842 35.6942 44.3842 35.875C44.3842 36.023 44.4388 36.1458 44.5478 36.2436C44.6584 36.3412 44.8016 36.39 44.9774 36.39ZM47.3626 33.2822V33.9584H47.9096V34.1976H47.3626V35.958C47.3626 36.1044 47.3888 36.2134 47.4408 36.285C47.4946 36.3566 47.5832 36.3924 47.707 36.3924C47.7558 36.3924 47.8348 36.3844 47.9438 36.368L47.956 36.6074C47.8794 36.635 47.7752 36.6488 47.6434 36.6488C47.4432 36.6488 47.2976 36.591 47.2064 36.4754C47.1152 36.3584 47.0698 36.1866 47.0698 35.9604V34.1976H46.5838V33.9584H47.0698V33.2822H47.3626ZM49.538 36.6488C49.3134 36.6488 49.11 36.5934 48.9276 36.4828C48.747 36.3722 48.6062 36.2184 48.5052 36.0214C48.4044 35.8228 48.354 35.6006 48.354 35.3548V35.25C48.354 34.996 48.4028 34.7674 48.5004 34.5638C48.5996 34.3604 48.7372 34.201 48.913 34.0854C49.0888 33.9682 49.2792 33.9096 49.4842 33.9096C49.805 33.9096 50.0588 34.0194 50.246 34.2392C50.4348 34.4572 50.5292 34.756 50.5292 35.1352V35.2988H48.6444V35.3548C48.6444 35.6544 48.7298 35.9042 48.9008 36.1044C49.0734 36.303 49.2898 36.4022 49.5502 36.4022C49.7064 36.4022 49.844 36.3738 49.9628 36.3168C50.0832 36.2598 50.1922 36.1686 50.29 36.0434L50.473 36.1826C50.2582 36.4934 49.9466 36.6488 49.538 36.6488ZM49.4842 34.1586C49.2646 34.1586 49.079 34.2392 48.9276 34.4002C48.7778 34.5614 48.6868 34.7778 48.6542 35.0498H50.2386V35.018C50.2306 34.764 50.1582 34.5574 50.0214 34.3978C49.8846 34.2384 49.7056 34.1586 49.4842 34.1586ZM52.3188 34.2074C52.257 34.196 52.191 34.1904 52.121 34.1904C51.9388 34.1904 51.784 34.2416 51.6572 34.3442C51.5318 34.445 51.4422 34.5924 51.3886 34.786V36.6H51.098V33.9584H51.3836L51.3886 34.3784C51.5432 34.0658 51.7914 33.9096 52.1332 33.9096C52.2146 33.9096 52.2788 33.9202 52.326 33.9414L52.3188 34.2074ZM53.1098 36.6H52.8168V33.9584H53.1098V36.6ZM52.7656 33.1942C52.7656 33.1388 52.7834 33.0926 52.8192 33.055C52.855 33.016 52.9038 32.9964 52.9658 32.9964C53.0276 32.9964 53.0764 33.016 53.1122 33.055C53.1496 33.0926 53.1684 33.1388 53.1684 33.1942C53.1684 33.2496 53.1496 33.296 53.1122 33.3334C53.0764 33.3708 53.0276 33.3896 52.9658 33.3896C52.9038 33.3896 52.855 33.3708 52.8192 33.3334C52.7834 33.296 52.7656 33.2496 52.7656 33.1942ZM54.184 33.9584L54.1938 34.41C54.293 34.2472 54.4168 34.1236 54.5648 34.039C54.713 33.9528 54.8766 33.9096 55.0556 33.9096C55.3388 33.9096 55.5496 33.9894 55.6878 34.1488C55.8262 34.3084 55.8962 34.5476 55.8978 34.8666V36.6H55.6074V34.8642C55.6056 34.6282 55.5552 34.4524 55.456 34.3368C55.3584 34.2212 55.2012 34.1634 54.9848 34.1634C54.8042 34.1634 54.6438 34.2204 54.5038 34.3344C54.3654 34.4466 54.263 34.5988 54.1962 34.791V36.6H53.9056V33.9584H54.184ZM56.5376 35.2548C56.5376 34.8414 56.6286 34.5142 56.811 34.2734C56.9948 34.0308 57.2438 33.9096 57.558 33.9096C57.9178 33.9096 58.1912 34.0528 58.3784 34.3392L58.393 33.9584H58.6664V36.5462C58.6664 36.8864 58.5712 37.1558 58.3808 37.3544C58.1904 37.553 57.9324 37.6522 57.6068 37.6522C57.423 37.6522 57.2472 37.6108 57.0794 37.5278C56.9134 37.4464 56.7824 37.3374 56.6864 37.2006L56.85 37.0248C57.0568 37.2788 57.3024 37.4056 57.5874 37.4056C57.8314 37.4056 58.0218 37.3332 58.1586 37.1884C58.2954 37.0452 58.3662 36.8458 58.371 36.5902V36.2582C58.1838 36.5186 57.9112 36.6488 57.5532 36.6488C57.2472 36.6488 57.0014 36.5268 56.8158 36.2826C56.6302 36.0384 56.5376 35.7088 56.5376 35.2938V35.2548ZM56.833 35.306C56.833 35.643 56.9004 35.909 57.0356 36.1044C57.1706 36.298 57.361 36.395 57.6068 36.395C57.9666 36.395 58.2212 36.2338 58.371 35.9116V34.6834C58.3026 34.5142 58.2042 34.3856 58.0756 34.2978C57.947 34.2082 57.7924 34.1634 57.6118 34.1634C57.366 34.1634 57.1748 34.2604 57.038 34.454C56.9012 34.646 56.833 34.93 56.833 35.306Z" fill="#BB0000"/>
<path d="M21.9042 22.9466C21.9042 22.9466 22.5764 24.998 25.7524 26.9902C25.7524 26.9902 24.828 28.1352 24.354 28.563C21.5668 27.338 20.6102 26.4464 19.0713 23.8734C19.0629 23.7796 21.9042 22.9466 21.9042 22.9466Z" fill="#E3E22E"/>
<path d="M21.9884 17.9223C21.9884 17.9223 20.819 20.7538 21.9094 23.009C21.9094 23.009 19.4383 24.3374 19.2963 24.1668C19.1544 23.9962 18.0717 20.7096 18.6 18.1C19.2861 18.043 21.9884 17.9223 21.9884 17.9223Z" fill="#F57B00"/>
<path d="M24.821 14.5763C24.821 14.5763 22.9774 15.3316 21.9054 18.13C21.9054 18.13 18.9585 18.0984 18.6 18.1299C18.5295 18.1361 19.3391 14.1266 21.4 12.6C22.19 13.1357 24.821 14.5763 24.821 14.5763Z" fill="#F93B00"/>
<path d="M29.3 13.5C29.3 13.5 27.1838 13.0974 24.8 14.6C24.8 14.6 22.4624 13.4524 21.2 12.8C20.9896 12.6913 24.4 8.50002 29.3 8.00002V10.7V12.2V13.5Z" fill="#CA0000"/>
<path d="M29.9222 7.79999L37.2906 9.70267L29.9222 13.7027V7.79999Z" fill="#BB0000"/>
<path d="M36.7442 9.82395L29.801 9.57469L29.797 9.77327L36.7442 9.82395Z" fill="white"/>
<path d="M36.7536 9.90547L29.8076 11.5852L29.8572 11.7775L36.7536 9.90547Z" fill="white"/>
</g>
<defs>
<clipPath id="clip0">
<rect width="100" height="40" fill="white"/>
</clipPath>
</defs>
</svg>
